<svg xmlns="http://www.w3.org/2000/svg" width="226" height="48" viewBox="0 0 226 48" fill="none"><path opacity="0.4" d="M39.2037 5.81445C39.2037 5.81445 44.114 6.94707 39.2037 24.1952L36.5605 25.7052C36.5605 25.7052 42.2866 12.6668 39.2037 5.81445Z" fill="#0D0A06"></path><path opacity="0.4" d="M44.8073 26.4189C44.8073 26.4189 47.105 22.0768 46.9154 18.1133C47.6439 21.0809 47.2716 24.212 45.8674 26.926C43.515 31.7435 44.8073 26.4189 44.8073 26.4189Z" fill="#0D0A06"></path><path d="M30.8231 28.7189C34.84 24.2737 41.2736 20.2217 45.2391 23.3052C49.2045 26.3887 46.4016 33.9053 42.7206 38.8538C38.5064 44.5315 31.0127 49.3674 27.1058 45.9689C23.1989 42.5705 25.8962 34.1809 30.8231 28.7189Z" fill="#EC1C24"></path><path opacity="0.4" d="M28.6289 0.580078C28.6289 0.580078 34.4192 0.961858 30.9546 17.2002H29.1952C29.1952 17.2002 32.8679 6.12224 28.6289 0.580078Z" fill="#0D0A06"></path><path d="M16.0516 46.6596C16.0516 46.6596 11.0013 41.309 16.5499 26.8319C22.9008 12.4795 31.2096 5.05074 37.8812 4.61042C37.8812 4.61042 32.2181 0.0137966 21.5785 9.39476C10.939 18.7757 7.73394 34.1322 7.73394 36.5259C7.73394 38.9197 5.93003 43.3871 16.0516 46.6596Z" fill="#EC1C24"></path><path d="M6.34259 40.4913C5.50381 32.4019 6.9645 24.2401 10.5568 16.9437C16.9198 5.68123 21.8282 2.6989 26.6119 0.0977061C26.6119 0.0977061 18.8045 -2.06189 7.6031 13.9251C-3.6034 31.4895 4.85046 40.4295 6.34259 40.4913Z" fill="#0D0A06"></path><path d="M0.552123 29.7357C0.552123 29.7357 1.30614 12.5409 12.7016 2.28125C8.33786 4.8262 4.7644 8.53026 2.37767 12.9825C-1.52476 20.3483 0.552123 29.7357 0.552123 29.7357Z" fill="#EC1C24"></path><path d="M25.1854 47.8554C25.1854 47.8554 20.2337 45.8421 21.9129 37.7834C23.5921 29.7247 30.0544 18.8147 38.8671 14.2861C39.4754 14.1385 42.7078 12.4192 45.8543 15.3774C45.8543 15.3774 43.1965 8.06822 33.7112 13.4252C23.5151 19.269 16.8352 32.4124 16.2473 38.2065C15.5544 42.765 16.2899 49.0312 25.1854 47.8554Z" fill="#0D0A06"></path><path d="M64.1307 23.7489C63.1686 23.7489 62.2466 23.6229 61.3647 23.371C60.4828 23.1075 59.7727 22.7697 59.2344 22.3573L60.1793 20.2614C60.6947 20.6279 61.3017 20.9314 62.0004 21.1719C62.7105 21.401 63.4263 21.5155 64.1479 21.5155C64.6976 21.5155 65.1386 21.464 65.4707 21.3609C65.8143 21.2464 66.0663 21.0917 66.2267 20.897C66.387 20.7023 66.4672 20.479 66.4672 20.227C66.4672 19.9063 66.3412 19.6543 66.0892 19.4711C65.8373 19.2764 65.5051 19.1218 65.0928 19.0072C64.6805 18.8812 64.2223 18.7667 63.7184 18.6636C63.2259 18.5491 62.7277 18.4116 62.2237 18.2513C61.7312 18.091 61.2788 17.8848 60.8665 17.6328C60.4542 17.3808 60.1163 17.0487 59.8529 16.6364C59.6009 16.224 59.4749 15.6972 59.4749 15.0558C59.4749 14.3686 59.6582 13.7444 60.0247 13.1832C60.4026 12.6105 60.9638 12.1581 61.7083 11.8259C62.4642 11.4823 63.4091 11.3105 64.543 11.3105C65.2989 11.3105 66.0434 11.4022 66.7764 11.5854C67.5094 11.7572 68.1566 12.0207 68.7178 12.3757L67.8588 14.4889C67.2976 14.1682 66.7363 13.9334 66.1751 13.7845C65.6139 13.6241 65.0641 13.544 64.5258 13.544C63.9875 13.544 63.5466 13.607 63.203 13.7329C62.8594 13.8589 62.6131 14.025 62.4642 14.2312C62.3153 14.4259 62.2409 14.6549 62.2409 14.9184C62.2409 15.2276 62.3669 15.4796 62.6189 15.6743C62.8708 15.8575 63.203 16.0064 63.6153 16.121C64.0276 16.2355 64.48 16.35 64.9725 16.4646C65.4765 16.5791 65.9747 16.7108 66.4672 16.8597C66.9711 17.0086 67.4293 17.209 67.8416 17.461C68.2539 17.713 68.5861 18.0451 68.838 18.4575C69.1015 18.8698 69.2332 19.3909 69.2332 20.0208C69.2332 20.6966 69.0442 21.3151 68.6662 21.8763C68.2883 22.4375 67.7213 22.8899 66.9654 23.2335C66.2209 23.5771 65.276 23.7489 64.1307 23.7489Z" fill="#0D0A06"></path><path d="M71.1349 23.5428V11.5167H73.9181V23.5428H71.1349Z" fill="#0D0A06"></path><path d="M82.579 23.7489C81.6284 23.7489 80.7522 23.6 79.9505 23.3022C79.1602 22.993 78.4672 22.5578 77.8717 21.9966C77.2875 21.4353 76.8294 20.7768 76.4973 20.0208C76.1766 19.2649 76.0162 18.4346 76.0162 17.5297C76.0162 16.6249 76.1766 15.7945 76.4973 15.0386C76.8294 14.2827 77.2933 13.6241 77.8889 13.0629C78.4844 12.5017 79.1831 12.0722 79.9848 11.7744C80.7866 11.4652 81.6685 11.3105 82.6306 11.3105C83.6957 11.3105 84.6521 11.4881 85.4996 11.8431C86.3586 12.1982 87.0802 12.7136 87.6643 13.3893L85.8776 15.0386C85.4424 14.5805 84.967 14.2426 84.4516 14.025C83.9362 13.7959 83.375 13.6814 82.768 13.6814C82.1839 13.6814 81.6513 13.773 81.1702 13.9563C80.6892 14.1395 80.2712 14.403 79.9161 14.7466C79.5725 15.0902 79.3033 15.4968 79.1086 15.9663C78.9254 16.4359 78.8338 16.9571 78.8338 17.5297C78.8338 18.091 78.9254 18.6064 79.1086 19.0759C79.3033 19.5455 79.5725 19.9579 79.9161 20.3129C80.2712 20.6565 80.6835 20.9199 81.1531 21.1032C81.6341 21.2864 82.161 21.3781 82.7336 21.3781C83.2834 21.3781 83.816 21.2922 84.3314 21.1204C84.8582 20.9371 85.3679 20.6336 85.8604 20.2098L87.441 22.2199C86.7881 22.7124 86.0265 23.0904 85.156 23.3538C84.297 23.6172 83.438 23.7489 82.579 23.7489ZM84.8983 21.8591V17.3408H87.441V22.2199L84.8983 21.8591Z" fill="#0D0A06"></path><path d="M90.0263 23.5428V11.5167H92.3284L99.4238 20.1755H98.3071V11.5167H101.056V23.5428H98.771L91.6584 14.884H92.7751V23.5428H90.0263Z" fill="#0D0A06"></path><path d="M109.244 23.7489C107.538 23.7489 106.203 23.2736 105.241 22.323C104.279 21.3723 103.798 20.0151 103.798 18.2513V11.5167H106.581V18.1482C106.581 19.2936 106.816 20.1182 107.286 20.6221C107.755 21.1261 108.414 21.3781 109.261 21.3781C110.109 21.3781 110.768 21.1261 111.237 20.6221C111.707 20.1182 111.942 19.2936 111.942 18.1482V11.5167H114.69V18.2513C114.69 20.0151 114.209 21.3723 113.247 22.323C112.285 23.2736 110.951 23.7489 109.244 23.7489Z" fill="#0D0A06"></path><path d="M117.441 23.5428V11.5167H122.646C123.723 11.5167 124.651 11.6942 125.429 12.0493C126.208 12.3929 126.809 12.8911 127.233 13.544C127.657 14.1968 127.869 14.9756 127.869 15.8804C127.869 16.7738 127.657 17.5469 127.233 18.1998C126.809 18.8526 126.208 19.3566 125.429 19.7116C124.651 20.0552 123.723 20.227 122.646 20.227H118.987L120.224 18.9729V23.5428H117.441ZM120.224 19.2821L118.987 17.9592H122.492C123.351 17.9592 123.992 17.776 124.416 17.4095C124.84 17.043 125.051 16.5333 125.051 15.8804C125.051 15.2162 124.84 14.7007 124.416 14.3342C123.992 13.9677 123.351 13.7845 122.492 13.7845H118.987L120.224 12.4616V19.2821Z" fill="#0D0A06"></path><path d="M138.841 23.7489C137.878 23.7489 136.956 23.6229 136.075 23.371C135.193 23.1075 134.483 22.7697 133.944 22.3573L134.889 20.2614C135.405 20.6279 136.012 20.9314 136.71 21.1719C137.42 21.401 138.136 21.5155 138.858 21.5155C139.407 21.5155 139.848 21.464 140.181 21.3609C140.524 21.2464 140.776 21.0917 140.937 20.897C141.097 20.7023 141.177 20.479 141.177 20.227C141.177 19.9063 141.051 19.6543 140.799 19.4711C140.547 19.2764 140.215 19.1218 139.803 19.0072C139.39 18.8812 138.932 18.7667 138.428 18.6636C137.936 18.5491 137.438 18.4116 136.934 18.2513C136.441 18.091 135.989 17.8848 135.576 17.6328C135.164 17.3808 134.826 17.0487 134.563 16.6364C134.311 16.224 134.185 15.6972 134.185 15.0558C134.185 14.3686 134.368 13.7444 134.735 13.1832C135.112 12.6105 135.674 12.1581 136.418 11.8259C137.174 11.4823 138.119 11.3105 139.253 11.3105C140.009 11.3105 140.753 11.4022 141.486 11.5854C142.219 11.7572 142.866 12.0207 143.428 12.3757L142.569 14.4889C142.007 14.1682 141.446 13.9334 140.885 13.7845C140.324 13.6241 139.774 13.544 139.236 13.544C138.697 13.544 138.256 13.607 137.913 13.7329C137.569 13.8589 137.323 14.025 137.174 14.2312C137.025 14.4259 136.951 14.6549 136.951 14.9184C136.951 15.2276 137.077 15.4796 137.329 15.6743C137.581 15.8575 137.913 16.0064 138.325 16.121C138.737 16.2355 139.19 16.35 139.682 16.4646C140.186 16.5791 140.685 16.7108 141.177 16.8597C141.681 17.0086 142.139 17.209 142.551 17.461C142.964 17.713 143.296 18.0451 143.548 18.4575C143.811 18.8698 143.943 19.3909 143.943 20.0208C143.943 20.6966 143.754 21.3151 143.376 21.8763C142.998 22.4375 142.431 22.8899 141.675 23.2335C140.931 23.5771 139.986 23.7489 138.841 23.7489Z" fill="#0D0A06"></path><path d="M151.686 23.7489C150.735 23.7489 149.853 23.5943 149.04 23.2851C148.239 22.9758 147.54 22.5406 146.944 21.9794C146.36 21.4182 145.902 20.7596 145.57 20.0037C145.249 19.2477 145.089 18.4231 145.089 17.5297C145.089 16.6364 145.249 15.8117 145.57 15.0558C145.902 14.2999 146.366 13.6413 146.961 13.0801C147.557 12.5189 148.256 12.0836 149.057 11.7744C149.859 11.4652 150.73 11.3105 151.669 11.3105C152.619 11.3105 153.49 11.4652 154.28 11.7744C155.082 12.0836 155.775 12.5189 156.359 13.0801C156.955 13.6413 157.418 14.2999 157.751 15.0558C158.083 15.8003 158.249 16.6249 158.249 17.5297C158.249 18.4231 158.083 19.2535 157.751 20.0208C157.418 20.7768 156.955 21.4353 156.359 21.9966C155.775 22.5463 155.082 22.9758 154.28 23.2851C153.49 23.5943 152.625 23.7489 151.686 23.7489ZM151.669 21.3781C152.207 21.3781 152.7 21.2864 153.146 21.1032C153.604 20.9199 154.005 20.6565 154.349 20.3129C154.693 19.9693 154.956 19.5627 155.139 19.0931C155.334 18.6235 155.431 18.1024 155.431 17.5297C155.431 16.9571 155.334 16.4359 155.139 15.9663C154.956 15.4968 154.693 15.0902 154.349 14.7466C154.017 14.403 153.622 14.1395 153.163 13.9563C152.705 13.773 152.207 13.6814 151.669 13.6814C151.131 13.6814 150.632 13.773 150.174 13.9563C149.727 14.1395 149.332 14.403 148.989 14.7466C148.645 15.0902 148.376 15.4968 148.181 15.9663C147.998 16.4359 147.906 16.9571 147.906 17.5297C147.906 18.091 147.998 18.6121 148.181 19.0931C148.376 19.5627 148.639 19.9693 148.972 20.3129C149.315 20.6565 149.716 20.9199 150.174 21.1032C150.632 21.2864 151.131 21.3781 151.669 21.3781Z" fill="#0D0A06"></path><path d="M160.34 23.5428V11.5167H163.124V21.275H169.154V23.5428H160.34Z" fill="#0D0A06"></path><path d="M175.901 23.7489C174.194 23.7489 172.86 23.2736 171.898 22.323C170.936 21.3723 170.455 20.0151 170.455 18.2513V11.5167H173.238V18.1482C173.238 19.2936 173.473 20.1182 173.942 20.6221C174.412 21.1261 175.071 21.3781 175.918 21.3781C176.766 21.3781 177.424 21.1261 177.894 20.6221C178.363 20.1182 178.598 19.2936 178.598 18.1482V11.5167H181.347V18.2513C181.347 20.0151 180.866 21.3723 179.904 22.323C178.942 23.2736 177.607 23.7489 175.901 23.7489Z" fill="#0D0A06"></path><path d="M186.387 23.5428V13.7845H182.539V11.5167H193.019V13.7845H189.17V23.5428H186.387Z" fill="#0D0A06"></path><path d="M194.516 23.5428V11.5167H197.299V23.5428H194.516Z" fill="#0D0A06"></path><path d="M205.995 23.7489C205.044 23.7489 204.162 23.5943 203.349 23.2851C202.547 22.9758 201.848 22.5406 201.253 21.9794C200.669 21.4182 200.211 20.7596 199.878 20.0037C199.558 19.2477 199.397 18.4231 199.397 17.5297C199.397 16.6364 199.558 15.8117 199.878 15.0558C200.211 14.2999 200.674 13.6413 201.27 13.0801C201.866 12.5189 202.564 12.0836 203.366 11.7744C204.168 11.4652 205.038 11.3105 205.977 11.3105C206.928 11.3105 207.798 11.4652 208.589 11.7744C209.39 12.0836 210.083 12.5189 210.667 13.0801C211.263 13.6413 211.727 14.2999 212.059 15.0558C212.391 15.8003 212.557 16.6249 212.557 17.5297C212.557 18.4231 212.391 19.2535 212.059 20.0208C211.727 20.7768 211.263 21.4353 210.667 21.9966C210.083 22.5463 209.39 22.9758 208.589 23.2851C207.798 23.5943 206.934 23.7489 205.995 23.7489ZM205.977 21.3781C206.516 21.3781 207.008 21.2864 207.455 21.1032C207.913 20.9199 208.314 20.6565 208.657 20.3129C209.001 19.9693 209.264 19.5627 209.448 19.0931C209.642 18.6235 209.74 18.1024 209.74 17.5297C209.74 16.9571 209.642 16.4359 209.448 15.9663C209.264 15.4968 209.001 15.0902 208.657 14.7466C208.325 14.403 207.93 14.1395 207.472 13.9563C207.014 13.773 206.516 13.6814 205.977 13.6814C205.439 13.6814 204.941 13.773 204.483 13.9563C204.036 14.1395 203.641 14.403 203.297 14.7466C202.954 15.0902 202.684 15.4968 202.49 15.9663C202.307 16.4359 202.215 16.9571 202.215 17.5297C202.215 18.091 202.307 18.6121 202.49 19.0931C202.684 19.5627 202.948 19.9693 203.28 20.3129C203.624 20.6565 204.025 20.9199 204.483 21.1032C204.941 21.2864 205.439 21.3781 205.977 21.3781Z" fill="#0D0A06"></path><path d="M214.649 23.5428V11.5167H216.951L224.046 20.1755H222.93V11.5167H225.679V23.5428H223.394L216.281 14.884H217.398V23.5428H214.649Z" fill="#0D0A06"></path><path d="M66.8871 29.0794H65.9925L63.091 33.8306L60.1895 29.0794H59.2344L62.6195 34.6164V37.5422H63.502V34.6164L66.8871 29.0794Z" fill="#0D0A06"></path><path d="M71.6081 37.6147C74.1469 37.6147 76.045 35.7891 76.045 33.3108C76.045 30.8324 74.1469 29.0068 71.6081 29.0068C69.0451 29.0068 67.1591 30.8445 67.1591 33.3108C67.1591 35.7771 69.0451 37.6147 71.6081 37.6147ZM71.6081 36.8168C69.5649 36.8168 68.0416 35.3297 68.0416 33.3108C68.0416 31.2918 69.5649 29.8048 71.6081 29.8048C73.6391 29.8048 75.1503 31.2918 75.1503 33.3108C75.1503 35.3297 73.6391 36.8168 71.6081 36.8168Z" fill="#0D0A06"></path><path d="M81.4596 37.6147C83.6236 37.6147 84.9293 36.3574 84.9293 33.9273V29.0794H84.0588V33.8911C84.0588 35.898 83.1158 36.8168 81.4596 36.8168C79.8154 36.8168 78.8724 35.898 78.8724 33.8911V29.0794H77.9777V33.9273C77.9777 36.3574 79.2955 37.6147 81.4596 37.6147Z" fill="#0D0A06"></path><path d="M92.4335 37.5422H93.3281V29.8531H96.3022V29.0794H89.4594V29.8531H92.4335V37.5422Z" fill="#0D0A06"></path><path d="M103.921 29.0794V32.8514H98.6261V29.0794H97.7314V37.5422H98.6261V33.6372H103.921V37.5422H104.804V29.0794H103.921Z" fill="#0D0A06"></path><path d="M107.566 37.5422H108.461V29.0794H107.566V37.5422Z" fill="#0D0A06"></path><path d="M117.404 29.0794V35.9463L111.952 29.0794H111.214V37.5422H112.109V30.6752L117.549 37.5422H118.287V29.0794H117.404Z" fill="#0D0A06"></path><path d="M127.13 37.5422H128.194L124.277 32.9118L127.94 29.0794H126.912L121.944 34.1933V29.0794H121.049V37.5422H121.944V35.3177L123.672 33.5646L127.13 37.5422Z" fill="#0D0A06"></path><path d="M129.559 36.2848C129.197 36.2848 128.919 36.5629 128.919 36.9377C128.919 37.252 129.1 37.4817 129.354 37.5542L128.943 39.3072H129.523L130.031 37.6389C130.152 37.3004 130.2 37.1432 130.2 36.9377C130.2 36.575 129.934 36.2848 129.559 36.2848Z" fill="#0D0A06"></path><path d="M146.13 29.0794L143.651 36.3936L141.161 29.0794H140.327L137.8 36.3574L135.358 29.0794H134.439L137.292 37.5422H138.223L140.714 30.3246L143.192 37.5422H144.135L146.988 29.0794H146.13Z" fill="#0D0A06"></path><path d="M149.523 36.7684V33.6251H153.9V32.8634H149.523V29.8531H154.432V29.0794H148.629V37.5422H154.613V36.7684H149.523Z" fill="#0D0A06"></path><path d="M159.88 37.5422H163.326C166.034 37.5422 167.859 35.8012 167.859 33.3108C167.859 30.8203 166.034 29.0794 163.326 29.0794H159.88V37.5422ZM160.775 36.7684V29.8531H163.277C165.526 29.8531 166.977 31.2797 166.977 33.3108C166.977 35.3418 165.526 36.7684 163.277 36.7684H160.775Z" fill="#0D0A06"></path><path d="M170.763 36.7684V33.6251H175.139V32.8634H170.763V29.8531H175.671V29.0794H169.868V37.5422H175.852V36.7684H170.763Z" fill="#0D0A06"></path><path d="M177.955 37.5422H183.589V36.7684H178.85V29.0794H177.955V37.5422Z" fill="#0D0A06"></path><path d="M185.075 37.5422H185.969V29.0794H185.075V37.5422Z" fill="#0D0A06"></path><path d="M194.758 29.0794L191.494 36.4299L188.254 29.0794H187.286L191.034 37.5422H191.917L195.665 29.0794H194.758Z" fill="#0D0A06"></path><path d="M197.787 36.7684V33.6251H202.164V32.8634H197.787V29.8531H202.696V29.0794H196.893V37.5422H202.877V36.7684H197.787Z" fill="#0D0A06"></path><path d="M211.738 37.5422L209.671 34.6406C210.904 34.2417 211.605 33.3108 211.605 31.9809C211.605 30.1674 210.3 29.0794 208.148 29.0794H204.98V37.5422H205.875V34.8582H208.148C208.389 34.8582 208.607 34.8462 208.825 34.822L210.759 37.5422H211.738ZM208.123 34.0966H205.875V29.8531H208.123C209.816 29.8531 210.711 30.6269 210.711 31.9809C210.711 33.3108 209.816 34.0966 208.123 34.0966Z" fill="#0D0A06"></path></svg>